<svg height="512pt" viewBox="0 0 512.00085 512" width="512pt" xmlns="http://www.w3.org/2000/svg"><path d="m288.515625 265.195312 60.050781 60.050782c10.605469-7.355469 19.050782-13.773438 23.855469-18.582032 46.789063-46.773437 46.789063-122.902343 0-169.703124-37.226563-37.226563-95.929687-47.46875-145.496094-18.207032l60.636719 60.644532c5.859375 5.859374 5.859375 15.351562 0 21.210937s-15.351562 5.859375-21.210938 0l-63.636718-63.644531c-11.15625 11.164062-29.785156 39.839844-51.234375 76.039062l51.238281 51.238282c5.859375 5.855468 5.859375 15.351562 0 21.210937-5.859375 5.855469-15.351562 5.855469-21.210938 0l-45.644531-45.648437c-14.824219 25.835937-30.359375 53.84375-45.519531 81.777343l27.519531 27.515625c5.855469 5.859375 5.855469 15.355469 0 21.210938-5.859375 5.859375-15.355469 5.859375-21.210937 0l-21.179688-21.175782c-36.023437 67.167969-66.820312 127.304688-73.832031 141.046876-2.972656 5.8125-1.832031 12.875 2.8125 17.476562 4.65625 4.605469 11.757813 5.648438 17.507813 2.621094 7.0625-3.6875 103.574218-54.230469 194.238281-105.277344l-33.738281-33.738281c-5.855469-5.855469-5.855469-15.351563 0-21.210938 5.859374-5.855469 15.355468-5.855469 21.210937 0l39.578125 39.578125c29.515625-16.894531 57.203125-33.273437 79.753906-47.527344l-55.699218-55.695312c-5.855469-5.859375-5.855469-15.355469 0-21.210938 5.859374-5.859374 15.351562-5.863281 21.210937 0zm0 0"/><path d="m497.015625 193c8.277344 0 14.984375-7.257812 14.984375-15.535156 0-19.730469-7.199219-39.066406-21.171875-53.027344-7.429687-7.398438-16.113281-13.066406-25.59375-16.773438 36.691406-39.289062 45.355469-86.496093 46.445313-89.609374 1.011718-4.792969-.394532-9.785157-3.765626-13.347657-3.367187-3.574219-8.335937-5.242187-13.109374-4.554687-34.1875 5.054687-68.636719 22.375-94.316407 45.460937-11.453125-25.3125-37.367187-45.613281-68.671875-45.613281-8.289062 0-14.816406 6.710938-14.816406 15v59.675781c28.925781 5.683594 55.335938 19.765625 76.632812 41.074219 21.761719 21.765625 35.363282 49.109375 40.929688 77.25zm0 0"/></svg>