<svg height="511pt" viewBox="-23 0 511 511.936" width="511pt" xmlns="http://www.w3.org/2000/svg"><path d="m360.46875 479.9375c0-8.824219-7.175781-16-16-16h-112v-40.203125c124.222656-4.238281 224-106.558594 224-231.796875 0-46.496094-13.703125-91.34375-39.632812-129.722656-1.457032-2.152344-3.863282-3.460938-6.464844-3.519532-2.542969.144532-5.070313 1.167969-6.605469 3.257813l-9.746094 13.238281 12.886719 9.488282 2.832031-3.847657c20.144531 33.488281 30.730469 71.664063 30.730469 111.105469 0 119.101562-96.898438 216-216 216-39.113281 0-77.066406-10.449219-110.382812-30.296875l4.046874-4.046875-11.320312-11.304688-11.144531 11.144532c-1.695313 1.695312-2.542969 4.070312-2.296875 6.460937.242187 2.394531 1.542968 4.546875 3.554687 5.867188 35.644531 23.503906 76.839844 36.421875 119.535157 37.878906l.007812 40.296875h-112c-8.824219 0-16 7.175781-16 16v16h-56v16h384v-16h-56zm-16 16h-240v-16h240zm0 0"/><path d="m49.492188 270.480469c.121093.519531.207031 1.046875.441406 1.542969.863281 1.886718 1.910156 3.671874 2.839844 5.527343 1.023437 2.066407 2.054687 4.121094 3.160156 6.144531 1.824218 3.359376 3.789062 6.625 5.8125 9.855469 1.195312 1.914063 2.347656 3.832031 3.609375 5.714844 2.328125 3.4375 4.832031 6.75 7.375 10.039063 1.203125 1.542968 2.304687 3.136718 3.5625 4.65625 3.910156 4.742187 8.023437 9.34375 12.40625 13.734374 4.375 4.367188 8.960937 8.472657 13.695312 12.375 1.882813 1.554688 3.859375 2.929688 5.785157 4.394532 2.886718 2.199218 5.769531 4.40625 8.769531 6.4375 2.382812 1.609375 4.832031 3.066406 7.261719 4.554687 2.695312 1.648438 5.386718 3.296875 8.152343 4.816407 2.578125 1.40625 5.199219 2.695312 7.824219 3.972656 2.800781 1.371094 5.617188 2.707031 8.488281 3.929687 2.59375 1.113281 5.199219 2.144531 7.824219 3.128907 3.078125 1.167968 6.183594 2.246093 9.328125 3.253906 2.464844.785156 4.9375 1.539062 7.425781 2.226562 3.4375.949219 6.902344 1.773438 10.398438 2.535156 2.273437.488282 4.542968.984376 6.832031 1.390626 3.769531.679687 7.566406 1.191406 11.382813 1.640624 2.105468.25 4.199218.519532 6.304687.703126 1.207031.105468 2.390625.320312 3.601563.402343.175781.007813.351562.015625.527343.015625.367188 0 .703125-.121094 1.0625-.167968 3.695313.207031 7.382813.527343 11.089844.527343 49.167969 0 98.335937-18.710937 135.765625-56.144531 52.929688-52.933594 68.242188-129.296875 46.320312-195.984375-.070312-.40625-.039062-.816406-.175781-1.214844-3.175781-9.441406-7.085937-18.488281-11.605469-27.183593-.1875-.351563-.355468-.710938-.539062-1.066407-2.75-5.222656-5.757812-10.285156-8.984375-15.222656-.335937-.511719-.671875-1.023437-1.015625-1.527344-3.261719-4.894531-6.742188-9.664062-10.472656-14.265625-.382813-.46875-.789063-.925781-1.175782-1.398437-3.894531-4.703125-7.964843-9.289063-12.351562-13.664063-4.558594-4.558594-9.328125-8.839844-14.253906-12.878906-1.410156-1.152344-2.90625-2.128906-4.328125-3.234375-3.601563-2.78125-7.214844-5.558594-10.984375-8.070313-1.519532-1.015624-3.121094-1.863281-4.664063-2.824218-3.808593-2.382813-7.632812-4.738282-11.585937-6.839844-1.4375-.761719-2.925782-1.382812-4.375-2.105469-4.152344-2.070312-8.328125-4.085937-12.625-5.847656-1.34375-.550781-2.726563-.984375-4.078125-1.503906-4.433594-1.703125-8.894531-3.328125-13.457031-4.695313-1.382813-.417968-2.792969-.710937-4.175782-1.097656-4.527344-1.246094-9.070312-2.421875-13.703125-3.335938-1.625-.320312-3.257812-.503906-4.886719-.78125-4.394531-.753906-8.792968-1.464843-13.257812-1.914062-1.945312-.191406-3.894531-.230469-5.847656-.367188-3.496094-.238281-6.96875-.617187-10.496094-.664062-.214844.015625-.425781.113281-.640625.136719-49.960937-.617188-100.121094 17.992187-138.160156 56.023437-57.863281 57.871094-70.792969 143.71875-39.207031 214.320313zm157.238281 96.441406c-5.277344-.53125-10.535157-1.265625-15.757813-2.273437-.472656-.097657-.9375-.234376-1.417968-.328126-4.71875-.945312-9.398438-2.089843-14.039063-3.425781-1.800781-.519531-3.558594-1.160156-5.34375-1.742187-3.265625-1.054688-6.511719-2.144532-9.71875-3.390625-2.144531-.839844-4.25-1.769531-6.359375-2.691407-2.792969-1.214843-5.5625-2.476562-8.296875-3.839843-2.191406-1.09375-4.359375-2.238281-6.503906-3.429688-2.640625-1.464843-5.25-3.007812-7.824219-4.617187-2.03125-1.261719-4.066406-2.535156-6.046875-3.878906-2.808594-1.914063-5.539063-3.96875-8.257813-6.066407-1.609374-1.238281-3.265624-2.421875-4.832031-3.71875-4.230469-3.503906-8.367187-7.175781-12.328125-11.136719-3.929687-3.925781-7.558594-8.03125-11.039062-12.214843-1.058594-1.273438-2.039063-2.601563-3.058594-3.902344-2.382812-3.042969-4.671875-6.128906-6.820312-9.289063-1.011719-1.480468-2-2.976562-2.960938-4.488281-2.082031-3.257812-4.015625-6.578125-5.863281-9.929687-.746094-1.351563-1.523438-2.6875-2.234375-4.0625-.382813-.742188-.679688-1.527344-1.054688-2.28125l38.6875-38.6875 24.550782 24.550781c4.527343 4.53125 11.289062 5.921875 17.257812 3.546875l46.765625-18.714844 35.867187 35.867188-28.28125 28.285156c-3.023437 3.027344-4.6875 7.042969-4.6875 11.320312 0 4.273438 1.664063 8.289063 4.6875 11.3125l13.472657 13.472657zm-106.71875-299.441406c29.921875-29.921875 68.03125-46.777344 107.175781-50.609375l-27.976562 27.976562c-3.023438 3.023438-4.6875 7.039063-4.6875 11.3125 0 4.28125 1.664062 8.296875 4.6875 11.3125l19.601562 19.597656-9.640625 48.175782c-1.046875 5.25.585937 10.65625 4.375 14.449218l25.257813 25.257813c3.023437 3.023437 7.039062 4.6875 11.3125 4.6875 4.277343 0 8.292968-1.664063 11.3125-4.6875l16.03125-16.023437-11.3125-11.3125-16.03125 16.023437-25.257813-25.257813 9.640625-48.175781c1.046875-5.253906-.585938-10.65625-4.375-14.445312l-19.601562-19.601563 39.871093-39.871094c2.28125.078126 4.5625.160157 6.839844.328126 2.105469.152343 4.21875.285156 6.3125.511718 3.617187.390625 7.21875.941406 10.816406 1.558594 1.855469.320312 3.722657.609375 5.5625.984375 3.757813.769531 7.496094 1.710937 11.207031 2.726563 1.65625.457031 3.328126.867187 4.96875 1.371093 3.757813 1.140625 7.460938 2.488281 11.152344 3.894531 1.582032.601563 3.175782 1.152344 4.742188 1.800782 3.609375 1.496094 7.144531 3.191406 10.65625 4.933594 1.582031.785156 3.191406 1.503906 4.75 2.335937 3.402344 1.816406 6.714844 3.859375 10.007812 5.90625 1.570313.976563 3.179688 1.863281 4.714844 2.894531 3.328125 2.226563 6.535156 4.679688 9.734375 7.152344 1.367187 1.054688 2.800781 2.015625 4.136719 3.113281 4.449218 3.648438 8.769531 7.519531 12.917968 11.671875 4.320313 4.320313 8.371094 8.839844 12.179688 13.503906 1.992188 2.449219 3.710938 5.03125 5.550781 7.558594 1.671875 2.289063 3.449219 4.511719 5 6.878906 1.765625 2.699219 3.269531 5.507813 4.878907 8.273438 1.382812 2.390625 2.863281 4.726562 4.136718 7.191406 1.351563 2.609375 2.472656 5.289063 3.679688 7.945313 1.273437 2.792969 2.59375 5.550781 3.71875 8.421875.25.625.425781 1.265625.65625 1.890625l-60.855469 30.429687-9.863281-9.863281 3.976562-19.894531c1.046875-5.257813-.585937-10.65625-4.375-14.449219l-8.289062-8.289063c-6.234375-6.238281-16.394532-6.238281-22.625 0l-27.039063 27.042969 11.3125 11.3125 27.039063-27.042969 8.289062 8.289063-3.976562 19.871094c-1.066406 5.257812.566406 10.664062 4.375 14.472656l9.855468 9.863281c4.863282 4.875 12.296876 6.082032 18.480469 3l58.777344-29.382812c16.480469 59.214844 1.589844 125.414062-44.882813 171.886718-34.605468 34.601563-80.148437 51.707032-125.605468 51.410157l7.183594-21.5625c1.929687-5.78125.449218-12.054688-3.863282-16.367188l-13.480468-13.472656.007812-.007813 28.28125-28.277343c3.023438-3.015625 4.6875-7.042969 4.6875-11.320313 0-4.273437-1.664062-8.289062-4.6875-11.3125l-35.867188-35.863281c-4.535156-4.539063-11.292968-5.9375-17.253906-3.546875l-46.769531 18.714844-24.550781-24.554688c-6.046875-6.046875-16.601563-6.039062-22.625 0l-34.246094 34.25c-23.785156-62.792968-10.585938-136.511718 39.886719-186.992187zm0 0"/><path d="m272.234375 251.632812 20.378906 12.222657-3.875 19.367187c-1.054687 5.257813.585938 10.664063 4.378907 14.449219l8.773437 8.769531c3.121094 3.117188 7.21875 4.679688 11.3125 4.679688 4.097656 0 8.191406-1.5625 11.3125-4.679688l15.273437-15.273437c3.015626-3.023438 4.679688-7.039063 4.679688-11.3125v-39.917969c0-4.273438-1.664062-8.289062-4.6875-11.3125l-23.25-23.257812c-4.3125-4.320313-10.589844-5.808594-16.375-3.863282l-24.746094 8.25c-6.542968 2.183594-10.941406 8.277344-10.941406 15.183594v12.984375c0 5.582031 2.976562 10.839844 7.765625 13.710937zm8.234375-26.695312 24.75-8.257812 23.25 23.257812v39.917969l-15.273438 15.273437-8.773437-8.769531 3.871094-19.359375c1.328125-6.617188-1.671875-13.390625-7.457031-16.855469l-20.367188-12.222656zm0 0"/><path d="m93.988281 150.777344c-1.929687 5.789062-.449219 12.0625 3.863281 16.367187l11.753907 11.75c2.238281 2.25 5.070312 3.761719 8.183593 4.386719l18.984376 3.796875c1.046874.210937 2.09375.3125 3.132812.3125 6.761719 0 12.96875-4.3125 15.1875-10.933594l8.34375-25.042969c.957031-2.886718 1.078125-5.972656.34375-8.933593l-10.21875-40.839844c-.703125-2.808594-2.152344-5.367187-4.207031-7.433594l-15.398438-15.398437c-6.03125-6.046875-16.578125-6.054688-22.632812 0l-12.894531 12.894531c-4.875 4.871094-6.082032 12.296875-3 18.472656l7.246093 14.496094v.015625zm23.015625-33.265625-7.257812-14.503907 12.898437-12.894531 15.398438 15.40625 10.21875 40.839844-8.347657 25.03125-18.980468-3.796875-11.761719-11.761719 8.703125-26.105469v-.007812c1.34375-4.046875 1.039062-8.375-.871094-12.207031zm0 0"/><path d="m432.46875 399.9375h16v16h-16zm0 0"/><path d="m432.46875 431.9375h16v16h-16zm0 0"/><path d="m416.46875 415.9375h16v16h-16zm0 0"/><path d="m448.46875 415.9375h16v16h-16zm0 0"/><path d="m16.46875 15.9375h16v16h-16zm0 0"/><path d="m16.46875 47.9375h16v16h-16zm0 0"/><path d="m.46875 31.9375h16v16h-16zm0 0"/><path d="m32.46875 31.9375h16v16h-16zm0 0"/></svg>